<svg width="33" height="33" viewBox="0 0 33 33" fill="none" xmlns="http://www.w3.org/2000/svg" className="mr-2">
        <g clipPath="url(#clip0_7913_1367)"><path d="M26.1896 13.3998H24.9374H24.9371V8.98907C24.937 4.32213 21.1401 0.525146 16.4731 0.525146C11.8063 0.525146 8.00928 4.32213 8.00928 8.98913V13.3999H6.75678C5.76666 13.3999 4.96387 14.2025 4.96387 15.1927V16.2834V28.7263V29.8169C4.96387 30.8072 5.7666 31.6098 6.75678 31.6098H16.4731H26.1896C27.1797 31.6098 27.9824 30.8072 27.9824 29.8169V28.7263V16.2834V15.1927C27.9824 14.2025 27.1797 13.3998 26.1896 13.3998ZM18.3815 26.2424H14.5649L15.248 22.9875C14.6091 22.581 14.1825 21.8711 14.1825 21.0578C14.1825 19.7928 15.2081 18.7673 16.4731 18.7673C17.7382 18.7673 18.7637 19.7928 18.7637 21.0578C18.7637 21.8711 18.3371 22.581 17.6984 22.9874L18.3815 26.2424ZM21.917 13.3998H16.4731H11.0296H11.0293V8.98907C11.0293 5.98704 13.4712 3.54514 16.4731 3.54514C19.4752 3.54514 21.917 5.9871 21.917 8.98907V13.3998Z" fill="#282F3A"></path></g>
        <defs><clipPath id="clip0_7913_1367"><rect width="32" height="32" fill="white" transform="translate(0.473633 0.0675049)"/></clipPath></defs>
      </svg>