<svg width="133" height="56" viewBox="0 0 133 56" fill="none" xmlns="http://www.w3.org/2000/svg">
        <path fillRule="evenodd" clipRule="evenodd" d="M132.931 28.9853C132.931 19.5874 128.379 12.1719 119.679 12.1719C110.942 12.1719 105.655 19.5874 105.655 28.912C105.655 39.962 111.896 45.5419 120.853 45.5419C125.222 45.5419 128.526 44.5507 131.022 43.1556V35.8134C128.526 37.0616 125.663 37.8323 122.028 37.8323C118.467 37.8323 115.31 36.5841 114.906 32.2522H132.858C132.858 31.7752 132.931 29.8662 132.931 28.9853ZM114.796 25.4977C114.796 21.3493 117.329 19.6241 119.642 19.6241C121.881 19.6241 124.268 21.3496 124.268 25.4977H114.796Z" fill="#545355"/>
        <path fillRule="evenodd" clipRule="evenodd" d="M91.4863 12.1716C87.8887 12.1716 85.5758 13.8605 84.2909 15.0351L83.8136 12.7591H75.7373V55.5638L84.915 53.6182L84.9516 43.2289C86.2732 44.1834 88.2188 45.5416 91.4493 45.5416C98.0206 45.5416 104.004 40.2552 104.004 28.618C103.968 17.9719 97.9107 12.1716 91.4863 12.1716ZM89.2835 37.4653C87.1175 37.4653 85.8328 36.6943 84.9516 35.7398L84.915 22.1203C85.8695 21.0556 87.191 20.3215 89.2835 20.3215C92.6243 20.3215 94.9369 24.0659 94.9369 28.8751C94.9369 33.7944 92.6609 37.4653 89.2835 37.4653Z" fill="#545355"/>
        <path fillRule="evenodd" clipRule="evenodd" d="M63.1094 10.0058L72.3237 8.02351V0.571045L63.1094 2.51695V10.0058Z" fill="#545355"/>
        <path d="M72.3237 12.7957H63.1094V44.9175H72.3237V12.7957Z" fill="#545355"/>
        <path fillRule="evenodd" clipRule="evenodd" d="M53.2318 15.5125L52.6443 12.7958H44.7148V44.9176H53.8925V23.1482C56.0583 20.3213 59.7295 20.8355 60.8675 21.2392V12.7958C59.6928 12.3555 55.3976 11.5479 53.2318 15.5125Z" fill="#545355"/>
        <path fillRule="evenodd" clipRule="evenodd" d="M34.878 4.82959L25.9204 6.73859L25.8838 36.1437C25.8838 41.577 29.9586 45.5785 35.3919 45.5785C38.4022 45.5785 40.6047 45.0279 41.8163 44.3669V36.9147C40.6416 37.392 34.8413 39.0805 34.8413 33.6475V20.6152H41.8163V12.796H34.8413L34.878 4.82959Z" fill="#545355"/>
        <path fillRule="evenodd" clipRule="evenodd" d="M10.0613 22.1202C10.0613 20.6885 11.236 20.1379 13.1816 20.1379C15.9716 20.1379 19.4958 20.9822 22.286 22.4875V13.8604C19.239 12.6491 16.2287 12.1716 13.1816 12.1716C5.72944 12.1716 0.773438 16.0631 0.773438 22.5608C0.773438 32.693 14.7236 31.0777 14.7236 35.4463C14.7236 37.1349 13.2552 37.6857 11.1993 37.6857C8.15234 37.6857 4.26104 36.4374 1.17738 34.7489V43.486C4.59143 44.9544 8.04238 45.5785 11.1993 45.5785C18.8351 45.5785 24.0848 41.7971 24.0848 35.2261C24.0481 24.2863 10.0613 26.232 10.0613 22.1202Z" fill="#545355"/>
      </svg>