<svg width="186" height="59" viewBox="0 0 186 59" fill="none" xmlns="http://www.w3.org/2000/svg">
        <path d="M143.857 17.7379H133.852C133.263 17.7379 132.675 18.3264 132.381 18.9149L128.261 44.8111C128.261 45.3996 128.555 45.6939 129.144 45.6939H134.44C135.029 45.6939 135.323 45.3996 135.323 44.8111L136.5 37.4542C136.5 36.8657 137.089 36.2771 137.972 36.2771H141.209C147.977 36.2771 151.803 33.0401 152.685 26.5661C153.274 23.9176 152.685 21.5634 151.508 20.0921C149.743 18.6207 147.094 17.7379 143.857 17.7379ZM145.034 27.4489C144.446 30.9802 141.797 30.9802 139.149 30.9802H137.383L138.56 24.2119C138.56 23.9176 138.855 23.6233 139.443 23.6233H140.032C141.797 23.6233 143.563 23.6233 144.446 24.8004C145.034 25.0947 145.034 25.9775 145.034 27.4489Z" fill="#868686"/>
        <path d="M71.7606 17.7379H61.7553C61.1667 17.7379 60.5782 18.3265 60.2839 18.915L56.1641 44.8111C56.1641 45.3997 56.4583 45.694 57.0469 45.694H61.7553C62.3438 45.694 62.9324 45.1054 63.2266 44.5169L64.4037 37.4543C64.4037 36.8657 64.9923 36.2772 65.8751 36.2772H69.1121C75.8804 36.2772 79.706 33.0402 80.5888 26.5661C81.1774 23.9177 80.5888 21.5635 79.4117 20.0921C77.6461 18.6207 75.2919 17.7379 71.7606 17.7379ZM72.9377 27.449C72.3491 30.9803 69.7007 30.9803 67.0522 30.9803H65.5808L66.7579 24.212C66.7579 23.9177 67.0522 23.6234 67.6408 23.6234H68.2293C69.9949 23.6234 71.7606 23.6234 72.6434 24.8005C72.9377 25.0948 73.232 25.9776 72.9377 27.449Z" fill="#545355"/>
        <path d="M102.071 27.1547H97.3626C97.0683 27.1547 96.4798 27.4489 96.4798 27.7432L96.1855 29.2146L95.8912 28.626C94.7142 27.1547 92.6542 26.5661 90.3 26.5661C85.0031 26.5661 80.2947 30.6859 79.4119 36.2772C78.8233 39.2199 79.7062 41.8684 81.1775 43.634C82.6489 45.3997 84.7088 45.9882 87.3573 45.9882C91.7714 45.9882 94.1256 43.3397 94.1256 43.3397L93.8313 44.8111C93.8313 45.3997 94.1256 45.6939 94.7141 45.6939H99.1283C99.7168 45.6939 100.305 45.1054 100.6 44.5168L103.248 28.0375C102.954 27.7432 102.365 27.1547 102.071 27.1547ZM95.3027 36.5714C94.7141 39.2199 92.6542 41.2798 89.7115 41.2798C88.2401 41.2798 87.063 40.6913 86.4745 40.1027C85.8859 39.2199 85.5916 38.0428 85.5916 36.5714C85.8859 33.923 88.2401 31.863 90.8886 31.863C92.36 31.863 93.2428 32.4516 94.1256 33.0401C95.0084 33.923 95.3027 35.3943 95.3027 36.5714Z" fill="#545355"/>
        <path d="M173.873 27.1547H169.164C168.87 27.1547 168.282 27.4489 168.282 27.7432L167.987 29.2146L167.693 28.626C166.516 27.1547 164.456 26.5661 162.102 26.5661C156.805 26.5661 152.096 30.6859 151.214 36.2772C150.625 39.2199 151.508 41.8684 152.979 43.634C154.451 45.3997 156.511 45.9882 159.159 45.9882C163.573 45.9882 165.927 43.3397 165.927 43.3397L165.633 44.8111C165.633 45.3997 165.927 45.6939 166.516 45.6939H170.93C171.519 45.6939 172.107 45.1054 172.401 44.5168L175.05 28.0375C174.756 27.7432 174.461 27.1547 173.873 27.1547ZM167.104 36.5714C166.516 39.2199 164.456 41.2798 161.513 41.2798C160.042 41.2798 158.865 40.6913 158.276 40.1027C157.688 39.2199 157.393 38.0428 157.393 36.5714C157.688 33.923 160.042 31.863 162.69 31.863C164.162 31.863 165.045 32.4516 165.927 33.0401C167.104 33.923 167.399 35.3943 167.104 36.5714Z" fill="#868686"/>
        <path d="M127.671 27.1546H122.668C122.08 27.1546 121.785 27.4489 121.491 27.7431L115.017 37.7485L112.074 28.3317C111.78 27.7431 111.486 27.4489 110.603 27.4489H105.895C105.306 27.4489 105.012 28.0374 105.012 28.626L110.309 44.2225L105.306 51.2851C105.012 51.8736 105.306 52.7565 105.895 52.7565H110.603C111.191 52.7565 111.486 52.4622 111.78 52.1679L127.965 28.9202C128.848 28.0374 128.259 27.1546 127.671 27.1546Z" fill="#545355"/>
        <path d="M179.466 18.6207L175.346 45.1054C175.346 45.694 175.64 45.9882 176.229 45.9882H180.348C180.937 45.9882 181.525 45.3997 181.82 44.8111L185.94 18.915C185.94 18.3265 185.645 18.0322 185.057 18.0322H180.348C180.054 17.7379 179.76 18.0322 179.466 18.6207Z" fill="#868686"/>
        <path d="M34.3874 8.90971C32.3275 6.55551 28.5019 5.37842 23.205 5.37842H8.4913C7.60848 5.37842 6.72565 6.26124 6.43138 7.14406L0.545898 45.694C0.545898 46.5768 1.13445 47.1654 1.72299 47.1654H10.8455L13.1997 32.7459V33.3345C13.494 32.4517 14.3768 31.5688 15.2596 31.5688H19.6737C28.2077 31.5688 34.6817 28.0375 36.7416 18.3265C36.7416 18.0322 36.7416 17.7379 36.7416 17.4437C36.4473 17.4437 36.4473 17.4437 36.7416 17.4437C37.0359 13.6181 36.4473 11.2639 34.3874 8.90971Z" fill="#545355"/>
        <path d="M36.4476 17.4437C36.4476 17.7379 36.4476 18.0322 36.4476 18.3265C34.3876 28.3318 27.9136 31.5688 19.3797 31.5688H14.9656C14.0827 31.5688 13.1999 32.4517 12.9056 33.3345L9.96289 51.2852C9.96289 51.8738 10.2572 52.4623 11.14 52.4623H18.7911C19.6739 52.4623 20.5568 51.8738 20.5568 50.9909V50.6967L22.0281 41.5742V40.9856C22.0281 40.1028 22.911 39.5142 23.7938 39.5142H24.9709C32.3277 39.5142 38.2132 36.5715 39.6846 27.7433C40.2731 24.212 39.9789 20.975 38.2132 18.915C37.9189 18.3265 37.3304 17.7379 36.4476 17.4437Z" fill="#868686"/>
        <path d="M34.3879 16.5608C34.0937 16.5608 33.7994 16.2665 33.5051 16.2665C33.2108 16.2665 32.9166 16.2665 32.6223 15.9722C31.4452 15.678 30.2681 15.678 28.7967 15.678H17.32C17.0258 15.678 16.7315 15.678 16.4372 15.9722C15.8487 16.2665 15.5544 16.8551 15.5544 17.4436L13.2002 32.7459V33.3344C13.4945 32.4516 14.3773 31.5688 15.2601 31.5688H19.6742C28.2082 31.5688 34.6822 28.0375 36.7421 18.3264C36.7421 18.0322 36.7421 17.7379 37.0364 17.4436C36.4478 17.1493 36.1536 16.8551 35.565 16.8551C34.6822 16.5608 34.6822 16.5608 34.3879 16.5608Z" fill="#3C3C3C"/>
      </svg>